# xmcd
#
# Track frame offsets:
#	150
#	13875
#	29716
#	40215
#	56041
#	69012
#	81083
#	93112
#	104130
#	118220
#
# Disc length: 1728 seconds
#
# Revision: 0
# Processed by: cddbd v1.5.2PL0 Copyright (c) Steve Scherf et al.
# Submitted via: EZCDAudioConverter 1.0.8.1
#
DISCID=8606be0a
DTITLE=Cornelio reyna - Duranguense
DYEAR=1900
DGENRE=
TTITLE0=Me sacaron del tenampa
TTITLE1=Ni por todo el dinero del mundo
TTITLE2=Pedazo de cariño
TTITLE3=Me cai de la nube
TTITLE4=Me caiste del cielo
TTITLE5=Alma rendida
TTITLE6=Vengo a verte
TTITLE7=Vestida y alborotada
TTITLE8=Cartas marcadas
TTITLE9=Sin ser tu dueño
EXTD=
EXTT0=
EXTT1=
EXTT2=
EXTT3=
EXTT4=
EXTT5=
EXTT6=
EXTT7=
EXTT8=
EXTT9=
PLAYORDER=
